<svg width="142" height="34" viewBox="0 0 142 34" fill="none" xmlns="http://www.w3.org/2000/svg">
<g clip-path="url(#clip0_4_203)">
<path d="M43.2666 24.3168H53.178V21.3314H46.7893V10.0865H43.2666V24.3168Z" fill="#050729"/>
<path d="M59.0502 22.3266C57.6371 22.3266 56.9007 21.0926 56.9007 19.2417C56.9007 17.3908 57.6371 16.1369 59.0502 16.1369C60.4633 16.1369 61.2196 17.3908 61.2196 19.2417C61.2196 21.0926 60.4633 22.3266 59.0502 22.3266ZM59.0701 24.6353C62.354 24.6353 64.5035 22.3067 64.5035 19.2417C64.5035 16.1767 62.354 13.8481 59.0701 13.8481C55.8061 13.8481 53.6168 16.1767 53.6168 19.2417C53.6168 22.3067 55.8061 24.6353 59.0701 24.6353Z" fill="#050729"/>
<path d="M70.1876 27.8395C71.7002 27.8395 73.0336 27.5012 73.9292 26.7051C74.7452 25.9687 75.2826 24.8541 75.2826 23.3216V14.1267H72.1778V15.2214H72.138C71.5409 14.3656 70.6254 13.8282 69.2721 13.8282C66.7445 13.8282 64.993 15.9378 64.993 18.9232C64.993 22.0479 67.1226 23.7595 69.4114 23.7595C70.6453 23.7595 71.4215 23.2619 72.0186 22.5853H72.0982V23.6003C72.0982 24.8342 71.521 25.5507 70.1478 25.5507C69.073 25.5507 68.5357 25.093 68.3566 24.5556H65.212C65.5304 26.6852 67.3813 27.8395 70.1876 27.8395ZM70.1677 21.3513C68.9536 21.3513 68.1575 20.3562 68.1575 18.8237C68.1575 17.2713 68.9536 16.2762 70.1677 16.2762C71.521 16.2762 72.2375 17.4305 72.2375 18.8038C72.2375 20.2368 71.5808 21.3513 70.1677 21.3513Z" fill="#050729"/>
<path d="M81.6666 22.3266C80.2536 22.3266 79.5172 21.0926 79.5172 19.2417C79.5172 17.3908 80.2536 16.1369 81.6666 16.1369C83.0797 16.1369 83.8357 17.3908 83.8357 19.2417C83.8357 21.0926 83.0797 22.3266 81.6666 22.3266ZM81.6865 24.6353C84.9701 24.6353 87.1196 22.3067 87.1196 19.2417C87.1196 16.1767 84.9701 13.8481 81.6865 13.8481C78.4225 13.8481 76.2333 16.1767 76.2333 19.2417C76.2333 22.3067 78.4225 24.6353 81.6865 24.6353Z" fill="#050729"/>
<path d="M88.0675 24.3168H91.3116V14.1267H88.0675V24.3168ZM88.0675 12.7137H91.3116V10.0865H88.0675V12.7137Z" fill="#050729"/>
<path d="M92.7189 27.6803H95.963V23.2619H96.0028C96.6397 24.1177 97.5751 24.6352 98.8886 24.6352C101.556 24.6352 103.327 22.5256 103.327 19.2217C103.327 16.1568 101.675 13.8282 98.9682 13.8282C97.5751 13.8282 96.5799 14.4452 95.8834 15.3607H95.8236V14.1267H92.7189V27.6803ZM98.0527 22.1275C96.6596 22.1275 95.8635 20.9931 95.8635 19.3412C95.8635 17.6893 96.5799 16.4354 97.993 16.4354C99.3862 16.4354 100.043 17.5897 100.043 19.3412C100.043 21.0727 99.2867 22.1275 98.0527 22.1275Z" fill="#050729"/>
<path d="M108.608 24.6352C111.275 24.6352 113.246 23.4809 113.246 21.2518C113.246 18.6446 111.136 18.1868 109.345 17.8883C108.051 17.6495 106.897 17.5499 106.897 16.8335C106.897 16.1966 107.514 15.898 108.31 15.898C109.205 15.898 109.822 16.1767 109.942 17.0922H112.927C112.768 15.082 111.216 13.8282 108.33 13.8282C105.922 13.8282 103.931 14.9427 103.931 17.0922C103.931 19.4805 105.822 19.9581 107.593 20.2567C108.947 20.4955 110.181 20.595 110.181 21.5105C110.181 22.1673 109.564 22.5256 108.589 22.5256C107.514 22.5256 106.837 22.028 106.718 21.013H103.653C103.752 23.2619 105.623 24.6352 108.608 24.6352Z" fill="#050729"/>
<path d="M117.652 24.6154C119.065 24.6154 119.961 24.0581 120.697 23.063H120.757V24.3168H123.862V14.1268H120.618V19.8189C120.618 21.0329 119.941 21.8688 118.827 21.8688C117.792 21.8688 117.294 21.2518 117.294 20.1373V14.1268H114.07V20.814C114.07 23.0829 115.304 24.6154 117.652 24.6154Z" fill="#050729"/>
<path d="M125.273 24.3168H128.518V18.6048C128.518 17.3907 129.115 16.5349 130.13 16.5349C131.105 16.5349 131.563 17.1718 131.563 18.2664V24.3168H134.807V18.6048C134.807 17.3907 135.384 16.5349 136.419 16.5349C137.394 16.5349 137.852 17.1718 137.852 18.2664V24.3168H141.096V17.6893C141.096 15.4005 139.942 13.8282 137.633 13.8282C136.319 13.8282 135.225 14.3855 134.429 15.6194H134.389C133.871 14.5248 132.856 13.8282 131.523 13.8282C130.05 13.8282 129.075 14.5248 128.438 15.5796H128.378V14.1267H125.273V24.3168Z" fill="#050729"/>
<path fill-rule="evenodd" clip-rule="evenodd" d="M17.4133 33.4388C26.5732 33.4388 33.9986 26.0132 33.9986 16.8534C33.9986 7.69358 26.5732 0.268066 17.4133 0.268066C8.25345 0.268066 0.827942 7.69358 0.827942 16.8534C0.827942 26.0132 8.25345 33.4388 17.4133 33.4388ZM19.9732 13.0824C21.387 11.6686 21.387 9.37638 19.9732 7.96256C18.5594 6.54876 16.2672 6.54876 14.8534 7.96256C13.4397 9.37638 13.4397 11.6686 14.8534 13.0824L17.4133 15.6423L19.9732 13.0824ZM21.1844 19.4133C22.5982 20.8272 24.8904 20.8272 26.3042 19.4133C27.7179 17.9995 27.7179 15.7073 26.3042 14.2935C24.8904 12.8798 22.5982 12.8798 21.1844 14.2935L18.6245 16.8535L21.1844 19.4133ZM19.9732 25.7443C21.387 24.3305 21.387 22.0383 19.9732 20.6245L17.4133 18.0646L14.8534 20.6245C13.4397 22.0383 13.4397 24.3305 14.8534 25.7443C16.2672 27.1581 18.5594 27.1581 19.9732 25.7443ZM8.52242 19.4133C7.10865 17.9995 7.10865 15.7073 8.52242 14.2935C9.93626 12.8798 12.2284 12.8798 13.6423 14.2935L16.2021 16.8535L13.6423 19.4133C12.2284 20.8272 9.93626 20.8272 8.52242 19.4133Z" fill="#050729"/>
</g>
<defs>
<clipPath id="clip0_4_203">
<rect width="140.976" height="34" fill="white" transform="translate(0.743835)"/>
</clipPath>
</defs>
</svg>
